<svg xmlns="http://www.w3.org/2000/svg" width="20" height="14.189" viewBox="0 0 20 14.189"><defs><style>.a{fill:#fff;}</style></defs><g transform="translate(0 -5.24)"><path class="a" d="M3.694,18.042H19.265a.953.953,0,0,0,.954-.951V6.191a.953.953,0,0,0-.954-.951H3.694a.953.953,0,0,0-.954.951V17.1A.953.953,0,0,0,3.694,18.042ZM3.977,6.466h15V16.815h-15Z" transform="translate(-1.373 0)"/><path class="a" d="M0,29v.215a.72.72,0,0,0,.75.674h18.5A.719.719,0,0,0,20,29.2V29Z" transform="translate(0 -10.459)"/><rect class="a" width="1.687" height="3.368" transform="translate(4.424 11.615)"/><rect class="a" width="1.687" height="4.212" transform="translate(7.579 10.713)"/><rect class="a" width="1.687" height="5.055" transform="translate(10.74 9.798)"/><rect class="a" width="1.687" height="7.337" transform="translate(13.895 8.234)"/></g></svg>