<svg id="SummaryReport_act" xmlns="http://www.w3.org/2000/svg" width="24" height="24" viewBox="0 0 24 24">
  <path id="路径_2073" data-name="路径 2073" d="M-340.465,911.367c0-.034-.008-.067-.01-.1,0,.034.01.067.01.1Z" transform="translate(347 -900.424)" fill="#3177d8"/>
  <rect id="Rectangle_119" data-name="Rectangle 119" width="24" height="24" fill="#f5c910" opacity="0"/>
  <path id="Icon_awesome-pen-square" data-name="Icon awesome-pen-square" d="M12.9,16.7H1.548A1.549,1.549,0,0,1,0,15.151V3.8A1.549,1.549,0,0,1,1.548,2.25H12.9A1.549,1.549,0,0,1,14.449,3.8V15.151A1.549,1.549,0,0,1,12.9,16.7ZM7.679,6.956,3.3,11.332l-.2,1.842a.391.391,0,0,0,.429.429l1.842-.2L9.747,9.023a.2.2,0,0,0,0-.274l-1.79-1.79a.2.2,0,0,0-.277,0Zm3.448-.413-.971-.971a.771.771,0,0,0-1.093,0l-.745.745a.2.2,0,0,0,0,.274l1.79,1.79a.2.2,0,0,0,.274,0l.745-.745A.777.777,0,0,0,11.127,6.543Z" transform="translate(5 2.75)" fill="#f5c910"/>
</svg>
