<svg id="ic_designcertification_w" xmlns="http://www.w3.org/2000/svg" width="24" height="24" viewBox="0 0 24 24">
  <path id="路径_2073" data-name="路径 2073" d="M-340.465,911.367c0-.034-.008-.067-.01-.1,0,.034.01.067.01.1Z" transform="translate(347 -900.424)" fill="#3177d8"/>
  <rect id="Rectangle_119" data-name="Rectangle 119" width="24" height="24" fill="#fff" opacity="0"/>
  <g id="组_7331" data-name="组 7331" transform="translate(347 -900.424)">
    <g id="组_7330" data-name="组 7330">
      <path id="路径_2074" data-name="路径 2074" d="M-335,903.514a6.334,6.334,0,0,0-1.769.254c-.115.033-.227.071-.339.11a6.361,6.361,0,0,0-2.395,1.5,6.355,6.355,0,0,0-1.579,2.609,6.344,6.344,0,0,0-.287,1.894,6.334,6.334,0,0,0,.287,1.894,6.341,6.341,0,0,0,1.237,2.234,6.393,6.393,0,0,0,1.809,1.472,6.333,6.333,0,0,0,1.753.64,6.419,6.419,0,0,0,1.152.123c.044,0,.087.006.131.006s.087-.006.131-.006a6.4,6.4,0,0,0,1.309-.164,6.194,6.194,0,0,0,.825-.252,6.346,6.346,0,0,0,1.3-.666c.169-.114.333-.236.49-.366s.308-.267.453-.411c.119-.12.231-.247.341-.376.023-.027.048-.05.07-.077a6.343,6.343,0,0,0,1.454-4.051A6.369,6.369,0,0,0-335,903.514Z" fill="none" stroke="#f5c910" stroke-miterlimit="10" stroke-width="2"/>
      <path id="路径_2075" data-name="路径 2075" d="M-337.725,910.572l1.687,1.372,3.764-2.911" fill="none" stroke="#f5c910" stroke-linecap="round" stroke-linejoin="round" stroke-width="2"/>
    </g>
    <path id="路径_2076" data-name="路径 2076" d="M-338.831,915.787v3.224h0l3.831,3.052,3.831-3.052v-3.224Z" fill="#f5c910"/>
  </g>
</svg>
