<svg id="组件_390_2198" data-name="组件 390 – 2198" xmlns="http://www.w3.org/2000/svg" width="40" height="40" viewBox="0 0 40 40">
  <g id="组件_216_12" data-name="组件 216 – 12">
    <g id="椭圆_1227" data-name="椭圆 1227" fill="#fff" stroke="#fff" stroke-width="1" opacity="0.004">
      <circle cx="20" cy="20" r="20" stroke="none"/>
      <circle cx="20" cy="20" r="19.5" fill="none"/>
    </g>
  </g>
  <g id="组件_217_32" data-name="组件 217 – 32" transform="translate(8 8)">
    <rect id="矩形_4844" data-name="矩形 4844" width="24" height="24" fill="#fff" opacity="0"/>
    <g id="bell" transform="translate(-26.702 -20.787) rotate(30)">
      <g id="组_6410" data-name="组 6410" transform="translate(42.675 -0.635)">
        <g id="路径_1857" data-name="路径 1857" fill="none">
          <path d="M13.7,13.011l-1.18-1.84a5.2,5.2,0,0,1-.833-2.811V6.749a4.556,4.556,0,0,0-3.437-4.31V1.285A1.334,1.334,0,0,0,6.873,0,1.334,1.334,0,0,0,5.5,1.285V2.439a4.556,4.556,0,0,0-3.437,4.31V8.36a5.2,5.2,0,0,1-.832,2.811L.049,13.01a.3.3,0,0,0,0,.324.347.347,0,0,0,.3.163H13.4a.349.349,0,0,0,.3-.163A.3.3,0,0,0,13.7,13.011Z" stroke="none"/>
          <path d="M 13.40330219268799 13.49742221832275 C 13.52702236175537 13.49742221832275 13.64112281799316 13.43509292602539 13.70231246948242 13.33482265472412 C 13.76349258422852 13.23452281951904 13.76143264770508 13.10982227325439 13.69818210601807 13.0108528137207 L 12.51797199249268 11.17135238647461 C 11.97289276123047 10.3223123550415 11.6848726272583 9.349842071533203 11.6848726272583 8.360042572021484 L 11.6848726272583 6.748692512512207 C 11.6848726272583 4.714452743530273 10.2331428527832 2.993862628936768 8.247992515563965 2.439172506332397 L 8.247992515563965 1.285472512245178 C 8.247992515563965 0.5765325427055359 7.631422519683838 2.539672777857049e-06 6.873242378234863 2.539672777857049e-06 C 6.115052223205566 2.539672777857049e-06 5.498482227325439 0.5765325427055359 5.498482227325439 1.285472512245178 L 5.498482227325439 2.439172506332397 C 3.513362407684326 2.993862628936768 2.061632394790649 4.714452743530273 2.061632394790649 6.748692512512207 L 2.061632394790649 8.360042572021484 C 2.061632394790649 9.349842071533203 1.773612380027771 10.32165241241455 1.229212403297424 11.17072296142578 L 0.04900237545371056 13.01022243499756 C -0.01491762325167656 13.10985279083252 -0.01630762405693531 13.23326301574707 0.04488237574696541 13.33416271209717 C 0.106072373688221 13.43506240844727 0.2194823771715164 13.49742221832275 0.343212366104126 13.49742221832275 L 13.40330219268799 13.49742221832275 M 13.40330219268799 15.49742221832275 L 0.343212366104126 15.49742221832275 C -0.474367618560791 15.49742221832275 -1.24395763874054 15.06589221954346 -1.665227651596069 14.37124252319336 C -2.125367641448975 13.61248207092285 -2.113537549972534 12.67714214324951 -1.634337663650513 11.93023300170898 L -0.4541076123714447 10.09071254730225 C -0.1168176233768463 9.564662933349609 0.06163237616419792 8.966032981872559 0.06163237616419792 8.360042572021484 L 0.06163237616419792 6.748692512512207 C 0.06163237616419792 5.298312664031982 0.5528023838996887 3.925832509994507 1.48204243183136 2.779602527618408 C 2.032297611236572 2.100855112075806 2.725005388259888 1.530594229698181 3.503470659255981 1.105754137039185 C 3.599589824676514 -0.6226563453674316 5.074292182922363 -1.999997496604919 6.873242378234863 -1.999997496604919 C 8.672183036804199 -1.999997496604919 10.14688491821289 -0.6226587295532227 10.24300384521484 1.105751752853394 C 11.0214786529541 1.53059184551239 11.71420097351074 2.100855112075806 12.2644624710083 2.779602527618408 C 13.19370269775391 3.925822496414185 13.6848726272583 5.298312664031982 13.6848726272583 6.748692512512207 L 13.6848726272583 8.360042572021484 C 13.6848726272583 8.966422080993652 13.86334228515625 9.564932823181152 14.20099258422852 10.09086227416992 L 15.38150215148926 11.93084239959717 C 15.86192226409912 12.68256282806396 15.87200260162354 13.61846256256104 15.40974235534668 14.37630271911621 C 14.98765277862549 15.06797218322754 14.21891212463379 15.49742221832275 13.40330219268799 15.49742221832275 Z" stroke="none" fill="#fff"/>
        </g>
      </g>
      <g id="组_6413" data-name="组 6413" transform="translate(46.186 16.292)">
        <g id="组_6412" data-name="组 6412" transform="translate(0 0)">
          <path id="路径_1858" data-name="路径 1858" d="M188.815,469.333a3.463,3.463,0,0,0,6.463,0Z" transform="translate(-188.815 -469.333)" fill="#fff"/>
        </g>
      </g>
    </g>
  </g>
</svg>
