<svg id="组件_391_29" data-name="组件 391 – 29" xmlns="http://www.w3.org/2000/svg" width="40" height="40" viewBox="0 0 40 40">
  <g id="组件_216_13" data-name="组件 216 – 13">
    <g id="椭圆_1227" data-name="椭圆 1227" fill="#fff" stroke="#fff" stroke-width="1" opacity="0">
      <circle cx="20" cy="20" r="20" stroke="none"/>
      <circle cx="20" cy="20" r="19.5" fill="none"/>
    </g>
  </g>
  <g id="组件_218_55" data-name="组件 218 – 55" transform="translate(8 8)">
    <rect id="矩形_4845" data-name="矩形 4845" width="24" height="24" fill="#fff" opacity="0"/>
    <g id="组_10501" data-name="组 10501" transform="translate(-1318.164 -20)">
      <g id="交叉_7" data-name="交叉 7" transform="translate(2643 -6668)" fill="none">
        <path d="M-1321.836,6707.282A9,9,0,0,1-1313,6700a9,9,0,0,1,8.836,7.28A12.207,12.207,0,0,1-1313,6711,12.211,12.211,0,0,1-1321.836,6707.282Z" stroke="none"/>
        <path d="M -1312.999877929688 6709 C -1311.56396484375 6709 -1310.178955078125 6708.7177734375 -1308.88330078125 6708.16064453125 C -1307.977172851562 6707.77099609375 -1307.1474609375 6707.26220703125 -1306.406005859375 6706.64208984375 C -1307.384765625 6703.8994140625 -1310.009887695312 6702.00048828125 -1312.999877929688 6702.00048828125 C -1315.990112304688 6702.00048828125 -1318.615234375 6703.89990234375 -1319.593872070312 6706.64306640625 C -1318.852294921875 6707.26220703125 -1318.0224609375 6707.77099609375 -1317.116333007812 6708.16064453125 C -1315.820556640625 6708.7177734375 -1314.435668945312 6709 -1312.999877929688 6709 M -1312.999877929688 6711 C -1316.495727539062 6711 -1319.642333984375 6709.5673828125 -1321.835693359375 6707.28173828125 C -1321.03369140625 6703.13330078125 -1317.382568359375 6700.00048828125 -1312.999877929688 6700.00048828125 C -1308.617431640625 6700.00048828125 -1304.966552734375 6703.1328125 -1304.164184570312 6707.28076171875 C -1306.357177734375 6709.5673828125 -1309.503662109375 6711 -1312.999877929688 6711 Z" stroke="none" fill="#fff"/>
      </g>
      <circle id="椭圆_1176" data-name="椭圆 1176" cx="4" cy="4" r="4" transform="translate(1326 22)" fill="none" stroke="#fff" stroke-width="2"/>
    </g>
  </g>
</svg>
