<svg id="icon_faviboard" xmlns="http://www.w3.org/2000/svg" width="24" height="24" viewBox="0 0 24 24">
  <rect id="矩形_95" data-name="矩形 95" width="24" height="24" fill="#fff" opacity="0"/>
  <g id="star" transform="translate(-1944.22 209.24)" fill="none" stroke-miterlimit="10">
    <path d="M1966.179-200.005a1.414,1.414,0,0,0-1.239-.88l-5.182-.753-2.319-4.7a1.413,1.413,0,0,0-1.219-.906,1.417,1.417,0,0,0-1.22.906l-2.318,4.7-5.182.753a1.417,1.417,0,0,0-1.239.88,1.421,1.421,0,0,0,.485,1.437l3.75,3.661-.885,5.163a1.5,1.5,0,0,0,.261,1.271,1.121,1.121,0,0,0,.876.393,1.812,1.812,0,0,0,.839-.229l4.633-2.439,4.635,2.437a1.825,1.825,0,0,0,.839.231h0a1.116,1.116,0,0,0,.876-.393,1.489,1.489,0,0,0,.262-1.271l-.885-5.163,3.749-3.659A1.416,1.416,0,0,0,1966.179-200.005Z" stroke="none"/>
    <path d="M 1956.218627929688 -204.2870483398438 L 1954.474609375 -200.7525939941406 L 1954.009155273438 -199.8094635009766 L 1952.968383789062 -199.6583251953125 L 1949.071411132812 -199.0924377441406 L 1951.891845703125 -196.3393096923828 L 1952.6435546875 -195.60546875 L 1952.465942382812 -194.5700378417969 L 1951.79931640625 -190.6829986572266 L 1955.286865234375 -192.5193023681641 L 1956.217895507812 -193.009521484375 L 1957.149291992188 -192.5199127197266 L 1960.640380859375 -190.6847229003906 L 1959.973754882812 -194.5714263916016 L 1959.796142578125 -195.6068878173828 L 1960.547973632812 -196.3407287597656 L 1963.366943359375 -199.0924072265625 L 1959.469848632812 -199.6583251953125 L 1958.429321289062 -199.8094177246094 L 1957.9638671875 -200.7521362304688 L 1956.218627929688 -204.2870483398438 M 1956.218627929688 -207.2409820556641 C 1956.766723632812 -207.2018432617188 1957.242309570312 -206.8479614257812 1957.438110351562 -206.3345947265625 L 1959.757202148438 -201.6375732421875 L 1964.939575195312 -200.8850250244141 C 1965.489379882812 -200.8570709228516 1965.971801757812 -200.5143585205078 1966.178833007812 -200.0052032470703 C 1966.308959960938 -199.4736938476562 1966.120239257812 -198.9141540527344 1965.693725585938 -198.5686950683594 L 1961.944946289062 -194.9095153808594 L 1962.830444335938 -189.7467041015625 C 1962.942504882812 -189.3061065673828 1962.845825195312 -188.8375091552734 1962.568725585938 -188.4752349853516 C 1962.35693359375 -188.2251892089844 1962.045043945312 -188.0819396972656 1961.716430664062 -188.0819396972656 C 1961.708618164062 -188.0819396972656 1961.700805664062 -188.08203125 1961.692993164062 -188.0821838378906 C 1961.399291992188 -188.090576171875 1961.111450195312 -188.1689147949219 1960.853881835938 -188.3129730224609 L 1956.218627929688 -190.7496185302734 L 1951.585571289062 -188.3101806640625 C 1951.329711914062 -188.1674957275391 1951.041625976562 -188.0877838134766 1950.746704101562 -188.0807800292969 C 1950.738891601562 -188.0806121826172 1950.731079101562 -188.0805358886719 1950.723266601562 -188.0805358886719 C 1950.395874023438 -188.0805358886719 1950.083862304688 -188.2238159179688 1949.870727539062 -188.4738464355469 C 1949.595336914062 -188.8361053466797 1949.498657226562 -189.3046875 1949.609252929688 -189.7453155517578 L 1950.494750976562 -194.9081268310547 L 1946.744750976562 -198.5686950683594 C 1946.319458007812 -198.9141540527344 1946.130493164062 -199.4736938476562 1946.259399414062 -200.0052032470703 C 1946.467651367188 -200.5143585205078 1946.950317382812 -200.8570709228516 1947.498657226562 -200.8850250244141 L 1952.681030273438 -201.6375732421875 L 1954.998657226562 -206.3345947265625 C 1955.195922851562 -206.8479614257812 1955.671508789062 -207.2018432617188 1956.218627929688 -207.2409820556641 Z" stroke="none" fill="#f5c910"/>
  </g>
</svg>
