<svg id="组件_208_3" data-name="组件 208 – 3" xmlns="http://www.w3.org/2000/svg" xmlns:xlink="http://www.w3.org/1999/xlink" width="76" height="28" viewBox="0 0 76 28">
  <defs>
    <linearGradient id="linear-gradient" x1="0.921" y1="-0.002" x2="-0.118" y2="0.866" gradientUnits="objectBoundingBox">
      <stop offset="0" stop-color="#fff"/>
      <stop offset="1" stop-color="#a7a7a7"/>
    </linearGradient>
    <linearGradient id="linear-gradient-2" x1="0.926" y1="0.04" x2="0.03" y2="1.007" xlink:href="#linear-gradient"/>
    <linearGradient id="linear-gradient-3" x1="1.105" y1="0.055" x2="-0.1" y2="0.98" xlink:href="#linear-gradient"/>
  </defs>
  <rect id="矩形_4847" data-name="矩形 4847" width="76" height="28" fill="#fff" opacity="0"/>
  <g id="组_11099" data-name="组 11099" transform="translate(-969.5 402.039)">
    <path id="路径_2373" data-name="路径 2373" d="M990.289-395.277h-7.465v20.243h-6v-20.243H969.5v-4.629h20.789Z" transform="translate(0 -0.793)" fill="url(#linear-gradient)"/>
    <path id="路径_2374" data-name="路径 2374" d="M1063.534-399.906l5.552,17.3,5.535-17.3h7.892v24.873H1076.5v-5.808l.581-11.89-6.013,17.7H1067.1l-6.03-17.715.581,11.907v5.808h-6v-24.873Z" transform="translate(-61.244 -0.793)" fill="url(#linear-gradient-2)"/>
    <path id="路径_2375" data-name="路径 2375" d="M1177.219-382.437a2.464,2.464,0,0,0-.931-2.05,11.587,11.587,0,0,0-3.272-1.521,31.306,31.306,0,0,1-3.827-1.521q-4.834-2.374-4.834-6.525a5.854,5.854,0,0,1,1.2-3.647,7.794,7.794,0,0,1,3.408-2.46,13.264,13.264,0,0,1,4.954-.88,11.606,11.606,0,0,1,4.809.956,7.614,7.614,0,0,1,3.306,2.725,7.116,7.116,0,0,1,1.178,4.04h-5.979a3.007,3.007,0,0,0-.931-2.357,3.627,3.627,0,0,0-2.52-.837,4.093,4.093,0,0,0-2.537.709,2.175,2.175,0,0,0-.931,1.8,2.189,2.189,0,0,0,1.025,1.734,12.906,12.906,0,0,0,3.6,1.606,22.114,22.114,0,0,1,4.236,1.785q4.032,2.324,4.031,6.406a6.072,6.072,0,0,1-2.46,5.125,10.942,10.942,0,0,1-6.748,1.862,13.383,13.383,0,0,1-5.475-1.085,8.25,8.25,0,0,1-3.69-2.972,7.745,7.745,0,0,1-1.238-4.348h6.013a3.815,3.815,0,0,0,1.033,2.947,4.886,4.886,0,0,0,3.357.948,3.86,3.86,0,0,0,2.349-.64A2.115,2.115,0,0,0,1177.219-382.437Z" transform="translate(-137.715 0)" fill="url(#linear-gradient-3)"/>
  </g>
</svg>
