<svg id="Personnel_management_act" xmlns="http://www.w3.org/2000/svg" width="24" height="24" viewBox="0 0 24 24">
  <g id="icon_faviboard_normal" opacity="0">
    <rect id="矩形_95" data-name="矩形 95" width="24" height="24" fill="#fff"/>
  </g>
  <g id="Layer_2" data-name="Layer 2" transform="translate(-1.01 -1.011)">
    <path id="路径_2568" data-name="路径 2568" d="M19.572,25.791a2.135,2.135,0,0,0,.386.31,9.235,9.235,0,0,1-6.812,1.12.761.761,0,1,1,.3-1.491,7.728,7.728,0,0,0,5.586-.84,2.2,2.2,0,0,0,.537.9Z" transform="translate(-2.147 -5.149)" fill="#f5c910" stroke="#f5c910" stroke-width="0.2" opacity="0.998"/>
    <path id="路径_2569" data-name="路径 2569" d="M26.075,9.59a9.189,9.189,0,0,1,1.181,6.873.773.773,0,0,1-1.514-.31,7.728,7.728,0,0,0-.8-5.5,2.157,2.157,0,0,0,.757-.484A2.051,2.051,0,0,0,26.075,9.59Z" transform="translate(-5.161 -1.43)" fill="#f5c910" stroke="#f5c910" stroke-width="0.2" opacity="0.998"/>
    <path id="路径_2570" data-name="路径 2570" d="M17.028,4.928a.74.74,0,0,1-.87.515,7.728,7.728,0,0,0-5.5.8,2.157,2.157,0,0,0-.484-.757,2.051,2.051,0,0,0-.568-.409,9.212,9.212,0,0,1,6.85-1.151.757.757,0,0,1,.568,1Z" transform="translate(-1.435)" fill="#f5c910" stroke="#f5c910" stroke-width="0.2" opacity="0.998"/>
    <path id="路径_2571" data-name="路径 2571" d="M5.246,12.767a.757.757,0,0,1,.2.681,7.728,7.728,0,0,0,.8,5.5,2.157,2.157,0,0,0-.757.484A2.051,2.051,0,0,0,5.079,20a9.212,9.212,0,0,1-1.151-6.85.757.757,0,0,1,.976-.568.757.757,0,0,1,.341.189Z" transform="translate(0 -2.147)" fill="#f5c910" stroke="#f5c910" stroke-width="0.2" opacity="0.998"/>
    <path id="路径_2572" data-name="路径 2572" d="M22.977,26.055a3.028,3.028,0,0,1-1.62-.477,2.861,2.861,0,0,1-.507-.409,2.967,2.967,0,0,1-.757-1.211,3.028,3.028,0,1,1,2.884,2.1Zm0-4.542a1.514,1.514,0,0,0-1.438,1.976,1.468,1.468,0,0,0,.363.613,1.4,1.4,0,0,0,.25.2,1.514,1.514,0,1,0,.863-2.793Z" transform="translate(-3.947 -3.961)" fill="#f5c910" stroke="#f5c910" stroke-width="0.2" opacity="0.998"/>
    <path id="路径_2573" data-name="路径 2573" d="M7.247,10.275A3.028,3.028,0,1,1,8.64,4.561a2.733,2.733,0,0,1,.757.545,2.914,2.914,0,0,1,.651.984A2.975,2.975,0,0,1,9.4,9.39a3.028,3.028,0,0,1-2.15.886Zm0-4.542a1.515,1.515,0,1,0,1.408.939,1.446,1.446,0,0,0-.325-.5,1.309,1.309,0,0,0-.356-.257,1.574,1.574,0,0,0-.742-.174Z" transform="translate(-0.124 -0.125)" fill="#f5c910" stroke="#f5c910" stroke-width="0.2" opacity="0.998"/>
    <path id="路径_2574" data-name="路径 2574" d="M7.251,25.831a3.028,3.028,0,0,1-2.68-4.42,2.74,2.74,0,0,1,.545-.757A2.914,2.914,0,0,1,6.1,20a2.975,2.975,0,0,1,3.3.651,3.028,3.028,0,0,1-2.142,5.17Zm0-4.542a1.612,1.612,0,0,0-1.082.447,1.317,1.317,0,0,0-.257.356,1.492,1.492,0,1,0,1.355-.81Z" transform="translate(-0.128 -3.902)" fill="#f5c910" stroke="#f5c910" stroke-width="0.2" opacity="0.998"/>
    <path id="路径_2575" data-name="路径 2575" d="M22.8,10.285A3.036,3.036,0,1,1,25.5,8.643a2.748,2.748,0,0,1-.545.757,3.156,3.156,0,0,1-2.15.893Zm0-4.542a1.511,1.511,0,1,0,.575,2.907,1.431,1.431,0,0,0,.492-.325,1.317,1.317,0,0,0,.257-.356,1.513,1.513,0,0,0-1.317-2.233Z" transform="translate(-3.91 -0.127)" fill="#f5c910" stroke="#f5c910" stroke-width="0.2" opacity="0.998"/>
  </g>
</svg>
