<svg xmlns="http://www.w3.org/2000/svg" width="24" height="24" viewBox="0 0 24 24">
  <g id="组_12301" data-name="组 12301" transform="translate(-663 -217)">
    <rect id="矩形_5241" data-name="矩形 5241" width="24" height="24" transform="translate(663 217)" fill="#fff" opacity="0"/>
    <g id="error" transform="translate(606.002 222)">
      <path id="路径_2393" data-name="路径 2393" d="M67.629,7.8l1.625.82,1.625-.82,1.625.82,2-1,0-4.862A2.761,2.761,0,0,0,71.745,0H64V7.613L66,8.624Zm5.935-5.7a1.376,1.376,0,0,0-.44-.072h-.71V1.395A1.387,1.387,0,0,0,72.33.916,1.942,1.942,0,0,1,73.564,2.107Zm-8.745,5V.825h6.275a.575.575,0,0,1,.5.569V2.856h1.53a.539.539,0,0,1,.387.16.586.586,0,0,1,.165.424l0,3.675L72.5,7.706l-1.625-.82-1.625.82-1.625-.82L66,7.706Z" transform="translate(-0.001)" fill="#fff" stroke="#fff" stroke-width="0.2"/>
      <path id="路径_2394" data-name="路径 2394" d="M70.878,314.985l-1.625.82-1.625-.82-1.625.82L64,314.794v5.392H74.5V314.8L72.5,315.805Zm2.8,1.146v3.235H64.818v-3.24l1.185.6,1.625-.82,1.625.82,1.625-.82,1.625.82Z" transform="translate(0 -306.186)" fill="#fff" stroke="#fff" stroke-width="0.2"/>
      <path id="路径_2395" data-name="路径 2395" d="M161.73,414.976h5.145v.82H161.73Z" transform="translate(-95.06 -403.629)" fill="#fff" stroke="#fff" stroke-width="0.2"/>
      <path id="路径_2396" data-name="路径 2396" d="M161.73,185.051h5.145v.82H161.73Z" transform="translate(-95.06 -179.991)" fill="#fff" stroke="#fff" stroke-width="0.2"/>
      <path id="路径_2397" data-name="路径 2397" d="M161.73,125.07h2.4v.82h-2.4Z" transform="translate(-95.06 -121.65)" fill="#fff" stroke="#fff" stroke-width="0.2"/>
    </g>
  </g>
</svg>
